<?xml version="1.0" encoding="utf-8"?>
<!-- Generator: Adobe Illustrator 21.1.0, SVG Export Plug-In . SVG Version: 6.00 Build 0)  -->
<svg version="1.1" id="Ebene_1" xmlns="http://www.w3.org/2000/svg" xmlns:xlink="http://www.w3.org/1999/xlink" x="0px" y="0px"
	 viewBox="0 0 745 552.4" style="enable-background:new 0 0 745 552.4;" xml:space="preserve">
<style type="text/css">
	.st0{fill:#72237A;}
</style>
<g>
	<path class="st0" d="M642.4,347.7c-2.1-3.6-5.7-5.5-9.7-6c-2.4-0.3-4.8-0.2-7.1-0.2c-2.8,0-5.6,0-8.4,0c-0.3,0-1.5-0.2-1.7,0
		c0,0.1,0,0.4,0,0.5c0,3.3,0,6.5,0,9.8c0,11.5,0,23.1,0,34.6c0,3.5,0,7,0,10.6c0,1,0,0.8,1,0.8c2.7,0,5.4,0,8.2,0c0.7,0,1.3,0,2,0
		c4.5,0,9.2-0.8,12.8-3.8c3.1-2.5,4.5-6.3,5.2-10.1c1-5.6,0.5-11.6,0.5-17.3C645.2,360.2,645.6,353.3,642.4,347.7z"/>
	<path class="st0" d="M116.2,342c-2.8-0.7-5.7-0.5-8.5-0.5c-3.1,0-6.2,0-9.3,0c-0.2,0-1.5-0.2-1.6,0c-0.1,0.1,0,0.6,0,0.7
		c0,3.8,0,7.6,0,11.4c0,6.4,0,12.9,0,19.3c0,6.3,0,12.5,0,18.8c0,2.2,0,4.4,0,6.6c0,0.7,0,1.5,0,2.2c0,0.4-0.1,0.9,0,1.3
		c0.1,0.3-0.1,0.1,0.2,0.2c0.3,0.1,0.8,0,1.1,0c0.6,0,1.3,0,1.9,0c3.1,0,6.2,0,9.4,0c0.6,0,1.3,0,1.9,0c4.6,0,9.6-1.3,12.3-5.4
		c2.5-3.8,2.9-8.8,2.9-13.2c0-5.1,0-10.1,0-15.2c0-5.9,0.6-12.4-1.3-18C123.7,345.9,120.5,343,116.2,342z"/>
	<path class="st0" d="M324.9,411.7c-1.3-9.4-2.7-18.7-4-28.1c-1.1-8.1-2.3-16.2-3.4-24.4c-0.4-2.6-0.7-5.3-1.1-7.9
		c-0.1-0.8-0.2-1.6-0.3-2.4c0-0.3,0-1-0.2-1.2c-0.7-0.9-0.7,1-0.8,1.3c-0.3,2-0.6,4-0.8,6c-1,7.3-2,14.7-3.1,22
		c-1.3,9.3-2.6,18.6-3.9,28c-1.2,8.5-2.3,16.9-3.5,25.4c-0.6,4.6-1.3,9.2-1.9,13.9c0,0.2-0.1,0.4-0.1,0.6c8.1,0,16.2,0,24.4,0
		c1.1,0,2.3,0,3.4,0c-0.5-3.2-0.9-6.5-1.4-9.7C327.1,427.3,326,419.5,324.9,411.7z"/>
	<path class="st0" d="M0,0v552.4h745V0H0z M499.4,272.9c0-1.7,0-3.5,0-5.2c0-3,0-5.9,0-8.9c0-4,0-8,0-12c0-4.9,0-9.8,0-14.7
		c0-5.6,0-11.1,0-16.7c0-6.1,0-12.3,0-18.4c0-6.5,0-13,0-19.5c0-6.7,0-13.3,0-20c0-6.7,0-13.4,0-20.1c0-6.6,0-13.1,0-19.7
		c0-6.2,0-12.5,0-18.7c0-5.7,0-11.4,0-17.1c0-5.1,0-10.1,0-15.2c0-4.2,0-8.5,0-12.7c0-3.2,0-6.4,0-9.7c0-2,0-4.1,0-6.1
		c0-0.7,0-1.4,0-2.1c3.7,0,7.3,0,11,0c6.4,0,12.7,0,19.1,0c2.1,0,4.1,0,6.2,0c0.3,0,1-0.1,1.1,0.1c0.1,0.2,0,0.8,0,1
		c0,0.7,0,1.4,0,2.1c0,2.4,0,4.7,0,7.1c0,3.5,0,6.9,0,10.4c0,4.5,0,8.9,0,13.4c0,5.3,0,10.5,0,15.8c0,5.9,0,11.8,0,17.6
		c0,6.3,0,12.6,0,18.9c0,6.6,0,13.2,0,19.8c0,6.7,0,13.4,0,20.2c0,6.7,0,13.3,0,20c0,6.4,0,12.8,0,19.2c0,6,0,12,0,18.1
		c0,5.4,0,10.9,0,16.3c0,4.7,0,9.3,0,14c0,3.8,0,7.5,0,11.3c0,2.7,0,5.3,0,8c0,1.4,0,2.8,0,4.2c0,0.1,0.1,0.5,0,0.5
		c-0.1,0.1-0.8,0-1,0c-0.8,0-1.6,0-2.4,0c-5.9,0-11.9,0-17.8,0c-5.1,0-10.2,0-15.2,0c-0.4,0-0.8,0.1-1-0.1
		C499.3,273.7,499.4,273.1,499.4,272.9z M234.9,36c0.2-0.2,1.7,0,2,0c1.9,0,3.7,0,5.6,0c5.4,0,10.8,0,16.2,0c4.1,0,8.3,0,12.4,0
		c0.2,0,1.1-0.1,1.3,0c0.1,0.1,0,0.6,0,0.8c0,4,0,8,0,12c0,7.7,0,15.4,0,23.1c0,10.1,0,20.2,0,30.3c0,11.2,0,22.3,0,33.5
		c0,10.9,0,21.7,0,32.6c0,9.2,0,18.4,0,27.6c0,6.2,0,12.4,0,18.7c0,4.4-0.2,8.9,0.5,13.2c0.6,3.5,1.7,7.2,4.1,9.9
		c2.5,3,6.1,4.7,9.9,5.4c7.8,1.4,16.9-0.7,20.8-8.3c2.9-5.7,2.7-12.1,2.7-18.3c0-5.6,0-11.2,0-16.9c0-8.8,0-17.6,0-26.5
		c0-10.6,0-21.3,0-31.9c0-11.2,0-22.4,0-33.6c0-10.3,0-20.7,0-31c0-8.2,0-16.4,0-24.6c0-4.7,0-9.4,0-14.1c0-0.3-0.2-1.6,0-1.8
		c0.1-0.1,0.7,0,0.8,0c0.6,0,1.3,0,1.9,0c2.1,0,4.1,0,6.2,0c5.5,0,10.9,0,16.4,0c2.2,0,4.5,0,6.7,0c0.8,0,1.6,0,2.3,0
		c0.4,0,1-0.1,1.4,0c0.4,0.1,0.2-0.1,0.3,0.2c0.1,0.3,0,0.9,0,1.2c0,1.7,0,3.4,0,5.1c0,6.5,0,12.9,0,19.4c0,9.4,0,18.8,0,28.2
		c0,10.9,0,21.9,0,32.8c0,11.1,0,22.2,0,33.3c0,9.9,0,19.7,0,29.6c0,7.2,0,14.5,0,21.7c0,3.3,0,6.5,0,9.8c0,14.3-2.5,29.3-11.3,40.9
		c-4.6,6.1-10.6,10.9-17.5,14c-7.8,3.5-16.4,4.9-24.9,5.1c-15.9,0.4-32.4-3.4-43.5-15.4c-11-11.9-14.3-28.6-14.3-44.4
		c0-2.8,0-5.5,0-8.3c0-6.9,0-13.8,0-20.7c0-9.7,0-19.3,0-29c0-11,0-22.1,0-33.1c0-11,0-22,0-33.1c0-9.6,0-19.2,0-28.9
		c0-6.8,0-13.7,0-20.5c0-1.9,0-3.9,0-5.8C234.9,37.9,234.7,36.3,234.9,36z M152.4,407.7c-3.1,6.6-7.9,12.3-14.2,16.1
		c-7.1,4.2-15.5,5.8-23.6,6.2c-4.7,0.2-9.5,0.1-14.2,0.1c-1,0-2,0-2.9,0c-0.1,0-0.7-0.1-0.7,0c-0.2,0.2,0,1.2,0,1.4
		c0,7.4,0,14.8,0,22.1c0,10.9,0,21.7,0,32.6c0,7.4,0,14.9,0,22.3c0,0.3,0.2,1.3,0,1.5c-0.2,0.2-1.5,0-1.8,0c-4.7,0-9.4,0-14.1,0
		c-4.5,0-9.1,0-13.6,0c-0.2,0-1.3,0.1-1.4,0c-0.1-0.1,0-0.6,0-0.7c0-3.7,0-7.4,0-11.2c0-7.3,0-14.6,0-21.9c0-9.7,0-19.4,0-29.1
		c0-10.9,0-21.8,0-32.7c0-11,0-22.1,0-33.1c0-10,0-20,0-29.9c0-7.7,0-15.4,0-23.2c0-4.4,0-8.8,0-13.2c0-0.6,0-1.1,0-1.7
		c7.4,0,14.8,0,22.2,0c7.8,0,15.5,0,23.3,0c7.9,0,16,1,23.3,4.3c6.7,3,12.2,7.9,15.9,14.2c4.2,7.1,6.1,15.3,6.7,23.5
		c0.4,4.9,0.2,9.8,0.2,14.7C157.4,382.8,157.9,395.8,152.4,407.7z M173.1,273.9c-0.1-0.2,0-0.7,0-0.9c0-0.6,0-1.2,0-1.8c0-2,0-4,0-6
		c0-6.6,0-13.2,0-19.9c0-9.1,0-18.3,0-27.4c0-10.5,0-20.9,0-31.4c0-10.5,0-21,0-31.5c0-9.5,0-18.9,0-28.4c0-7.1,0-14.2,0-21.3
		c0-3.6,0-7.2,0-10.8c0-0.1,0.1-0.5,0-0.6c0,0-0.6-0.1-0.7,0c0,0,0,0.2,0,0.2c-0.1,0.2-0.1,0.8-0.2,1c-0.1,0.6-0.2,1.3-0.3,1.9
		c-0.7,5-1.5,9.9-2.2,14.9c-1.2,8-2.4,16-3.6,24c-1.5,9.8-3,19.7-4.5,29.5c-1.6,10.6-3.2,21.1-4.8,31.7c-1.5,10-3,20-4.5,30
		c-1.3,8.4-2.5,16.8-3.8,25.3c-0.8,5.6-1.7,11.1-2.5,16.7c-0.2,1.4-0.4,2.8-0.6,4.1c-0.1,1-0.1,0.9-1.1,0.9c-8.9,0-17.8,0-26.7,0
		c-0.7,0-1.5,0-2.2,0c-0.3,0-1,0.1-1.2,0c-0.2-0.1-0.1,0-0.2-0.3c-0.4-0.9-0.3-2.2-0.5-3.1c-0.8-5.1-1.5-10.1-2.3-15.2
		c-1.2-8-2.4-16-3.6-24.1c-1.5-9.9-3-19.8-4.5-29.7c-1.6-10.5-3.2-21-4.8-31.5c-1.5-10.1-3-20.1-4.6-30.2c-1.3-8.3-2.5-16.7-3.8-25
		c-0.8-5.5-1.7-11-2.5-16.5c-0.2-1.3-0.4-2.6-0.6-4c0-0.1,0-0.6-0.1-0.7c-0.3-0.3-0.6-0.1-0.7,0.1c-0.1,0.2,0,0.8,0,1
		c0,0.6,0,1.2,0,1.8c0,2,0,4,0,6c0,6.7,0,13.4,0,20.1c0,9.1,0,18.3,0,27.4c0,10.5,0,21,0,31.4c0,10.5,0,21,0,31.5
		c0,9.4,0,18.9,0,28.3c0,7.1,0,14.2,0,21.2c0,3.5,0,7.1,0,10.6c0,0.1,0.1,0.5,0,0.6c-0.2,0.2-1.6,0-1.8,0c-4.4,0-8.8,0-13.2,0
		c-4.7,0-9.5,0-14.2,0c-0.7,0-1.4,0-2.1,0c-0.2,0-0.9,0.1-1.1,0c-0.2-0.1,0,0-0.1-0.2c-0.2-0.6,0-1.8,0-2.5c0-1.7,0-3.3,0-5
		c0-5.5,0-11,0-16.4c0-7.9,0-15.7,0-23.6c0-9.5,0-18.9,0-28.4c0-10.4,0-20.8,0-31.2c0-10.7,0-21.3,0-32c0-10.2,0-20.4,0-30.7
		c0-9.1,0-18.2,0-27.4c0-7.2,0-14.5,0-21.7c0-4.8,0-9.5,0-14.3c0-1.5,0-3.1,0-4.6c6.3,0,12.6,0,18.9,0c9.7,0,19.3,0,29,0
		c1.3,0,2.7,0,4,0c0.2,0,1.3-0.2,1.5,0c0.2,0.2,0.2,1.6,0.3,1.9c0.6,4.6,1.3,9.2,1.9,13.7c1.1,7.9,2.2,15.8,3.3,23.6
		c1.4,9.9,2.8,19.8,4.1,29.7c1.5,10.5,2.9,21,4.4,31.5c1.4,9.9,2.8,19.9,4.2,29.8c1.1,7.9,2.2,15.9,3.3,23.8c0.7,4.7,1.3,9.4,2,14.1
		c0,0.3,0,1.9,0.3,2.1c0.1,0.1,0.6,0,0.7,0c0,0,0-0.2,0-0.2c0.1-0.3,0.1-0.8,0.2-1.2c0.6-4.3,1.2-8.6,1.8-12.9
		c1.1-7.7,2.2-15.4,3.2-23.1c1.4-9.7,2.7-19.5,4.1-29.2c1.5-10.6,3-21.1,4.4-31.7c1.4-10,2.8-19.9,4.2-29.9
		c1.1-8.2,2.3-16.3,3.4-24.5c0.7-5,1.4-9.9,2.1-14.9c0.1-0.6,0.2-1.2,0.2-1.8c0-0.2,0-0.7,0.1-0.9c0.1-0.1,0.3-0.1,0.6-0.1
		c1,0,2.1,0,3.1,0c9.3,0,18.5,0,27.8,0c4.7,0,9.5,0,14.2,0c1.6,0,3.3,0,4.9,0c0.7,0,1.9-0.2,2.6,0c0.3,0.1,0.1-0.1,0.2,0.1
		c0.1,0.1,0,0.6,0,0.8c0,1.2,0,2.4,0,3.6c0,4.7,0,9.3,0,14c0,7.2,0,14.5,0,21.7c0,9,0,18.1,0,27.1c0,10.2,0,20.5,0,30.7
		c0,10.7,0,21.3,0,32c0,10.4,0,20.9,0,31.3c0,9.5,0,19,0,28.5c0,7.9,0,15.8,0,23.6c0,5.6,0,11.1,0,16.7c0,1.7,0,3.4,0,5.1
		c0,0.7,0.2,1.8,0,2.6c0,0.1,0,0.2,0,0.3c-0.1,0.1-0.7,0-0.9,0c-0.6,0-1.2,0-1.8,0c-4.5,0-9,0-13.5,0c-4.8,0-9.7,0-14.5,0
		c-1.3,0-2.7,0-4,0C173.3,274,173.2,274.1,173.1,273.9z M256,510c-0.2,0.2-1.5,0-1.7,0c-3.8,0-7.5,0-11.3,0c-6,0-12,0-18,0
		c-6.7,0-13.5,0-20.2,0c-6,0-11.9,0-17.9,0c-3.7,0-7.4,0-11.1,0c-0.2,0-1.4,0.2-1.6,0c-0.1-0.1,0-0.6,0-0.7c0-1.7,0-3.5,0-5.2
		c0-3.2,0-6.5,0-9.7c0-4.5,0-8.9,0-13.4c0-5.4,0-10.9,0-16.3c0-6.1,0-12.3,0-18.4c0-6.6,0-13.2,0-19.9c0-6.8,0-13.6,0-20.3
		c0-6.7,0-13.4,0-20.1c0-6.4,0-12.8,0-19.1c0-5.8,0-11.6,0-17.4c0-4.9,0-9.9,0-14.8c0-3.8,0-7.7,0-11.5c0-2.5,0-4.9,0-7.4
		c0-0.8,0-1.7,0-2.5c4.2,0,8.4,0,12.7,0c5.7,0,11.3,0,17,0c0.4,0,1.1-0.2,1.2,0.2c0.2,0.3,0,1.1,0,1.5c0,2.4,0,4.8,0,7.2
		c0,4,0,8,0,12c0,5.2,0,10.4,0,15.7c0,6.1,0,12.2,0,18.4c0,6.6,0,13.2,0,19.8c0,6.8,0,13.6,0,20.3c0,6.6,0,13.2,0,19.8
		c0,6.1,0,12.1,0,18.2c0,5.2,0,10.3,0,15.5c0,3.9,0,7.8,0,11.7c0,2.3,0,4.6,0,6.9c0,0.3-0.1,1.1,0,1.3c0.1,0.2,0.8,0.1,1.1,0.1
		c4.5,0,9,0,13.6,0c6.6,0,13.3,0,19.9,0c4.9,0,9.7,0,14.6,0c0.4,0,1.6-0.2,1.7,0.1c0.2,0.3,0,1.4,0,1.8c0,1.2,0,2.3,0,3.5
		c0,6.3,0,12.5,0,18.8c0,1,0,1.9,0,2.9C256,509.2,256.1,509.9,256,510z M356.9,510c-5.7,0-11.3,0-17,0c-0.2,0-0.9,0.1-1.1,0
		c-0.1-0.1-0.1-0.7-0.1-0.8c-0.3-1.9-0.6-3.8-0.8-5.7c-0.9-6.4-1.8-12.8-2.8-19.2c-0.4-2.8-0.8-5.7-1.2-8.5
		c-0.2-1.5-0.3-3.1-0.7-4.5c0-0.1,0-0.1,0-0.2c0,0.6,0.1,0.5-0.3,0.6c-0.3,0.1-0.9,0-1.2,0c-1.6,0-3.2,0-4.7,0c-4.8,0-9.5,0-14.3,0
		c-4.1,0-8.2,0-12.3,0c-0.5,0-1.1,0-1.6,0c-0.1,0-0.6-0.1-0.7,0c-0.2,0.2-0.2,1.2-0.2,1.4c-1.2,8.5-2.5,16.9-3.7,25.4
		c-0.5,3.5-1,6.9-1.5,10.4c0,0.3,0,1.1-0.3,1.2c-0.2,0.1-0.8,0-1.1,0c-0.7,0-1.4,0-2.1,0c-8.3,0-16.5,0-24.8,0c-0.2,0-0.4,0-0.6,0
		c0.3-1.8,0.6-3.5,0.9-5.3c0.8-4.8,1.6-9.5,2.3-14.3c1.1-7.1,2.3-14.1,3.4-21.2c1.4-8.6,2.8-17.2,4.2-25.8
		c1.5-9.4,3.1-18.9,4.6-28.3c1.6-9.5,3.1-19,4.7-28.6c1.4-8.9,2.9-17.8,4.3-26.6c1.2-7.5,2.4-15,3.7-22.4c0.9-5.4,1.8-10.8,2.6-16.2
		c0.4-2.6,0.8-5.1,1.2-7.7c0-0.1,0-0.2,0.1-0.3c8.3,0,16.5,0,24.8,0c4.7,0,9.5,0,14.2,0c0.6,0,1.3,0,1.9,0c0.1,0,0.7-0.1,0.9,0
		c0.1,0.1,0.1,0.3,0.1,0.4c0.3,1.2,0.4,2.4,0.6,3.6c0.4,2.3,0.8,4.7,1.1,7c1.2,7.5,2.4,15,3.7,22.4c1.6,10.1,3.3,20.2,4.9,30.3
		c1.8,11.4,3.7,22.7,5.5,34.1c1.9,11.4,3.7,22.9,5.6,34.3c1.7,10.1,3.3,20.3,5,30.4c1.2,7.5,2.5,15,3.7,22.6c0.6,3.7,1.2,7.4,1.8,11
		c0,0.2,0.1,0.3,0.1,0.5C365.5,510,361.2,510,356.9,510z M466.7,318.6c-1.5,4.6-3,9.2-4.6,13.8c-2.1,6.4-4.2,12.8-6.4,19.2
		c-2.4,7.3-4.8,14.5-7.2,21.8c-2.4,7.1-4.7,14.2-7.1,21.3c-2,5.9-3.9,11.8-5.9,17.8c-1.3,3.8-2.5,7.6-3.8,11.3
		c-0.4,1.2-0.8,2.1-0.8,3.3c0,3.9,0,7.8,0,11.7c0,6.8,0,13.7,0,20.5c0,7.6,0,15.2,0,22.9c0,6.3,0,12.7,0,19c0,2,0,4,0,6
		c0,0.6,0,1.2,0,1.8c0,0.2,0.1,0.7,0,0.9c-0.1,0.1-0.4,0.1-0.6,0.1c-1,0-1.9,0-2.9,0c-3.4,0-6.7,0-10.1,0c-3.7,0-7.4,0-11.1,0
		c-1.3,0-2.7,0-4,0c-0.5,0-1.7,0.2-2.1,0c-0.3-0.2-0.1-1-0.1-1.4c0-1.7,0-3.4,0-5.1c0-5.9,0-11.8,0-17.7c0-7.6,0-15.2,0-22.7
		c0-7.1,0-14.2,0-21.3c0-4.5,0-9,0-13.5c0-0.6,0-1.3,0-1.9c-1.2-3.8-2.5-7.5-3.7-11.3c-3-9-5.9-18-8.9-27
		c-3.6-10.9-7.2-21.7-10.8-32.6c-3.1-9.4-6.2-18.8-9.3-28.2c-1-3.1-2.1-6.2-3.1-9.3c-0.3-1-0.6-1.9-1-2.9c-0.1-0.4-0.6-1.1-0.5-1.5
		c0,0,0-0.1-0.1-0.2c7.7,0,15.3,0,23,0c2.1,0,4.2,0,6.4,0c0.7,0,1.4,0,2.1,0c0.3,0,0.9-0.1,1.2,0c0.6,0.2,0.8,2.2,1,2.8
		c2.2,7.4,4.3,14.8,6.5,22.2c2.8,9.7,5.7,19.5,8.5,29.2c1.7,5.8,3.4,11.7,5.1,17.5c0.1,0.3,0.2,0.9,0.7,0.4c0.2-0.2,0.3-1.1,0.4-1.4
		c0.7-2.6,1.5-5.1,2.2-7.7c2.6-9,5.2-18,7.9-27c2.6-9,5.3-18,7.9-27c0.8-2.6,1.5-5.2,2.3-7.7c0.1-0.3,0.2-1.2,0.4-1.4
		c0.2-0.2,1.2,0,1.6,0c8.8,0,17.5,0,26.3,0c0.8,0,1.5,0,2.3,0C467.8,315.1,467.3,316.9,466.7,318.6z M477.4,228.1
		c-1,8.7-3.2,17.4-7.5,25c-3.9,6.9-9.6,12.8-16.5,16.8c-7.6,4.5-16.4,6.6-25.1,7.2c-9.5,0.7-19.3,0.1-28.3-2.8
		c-7.5-2.4-14.3-6.6-19.5-12.4c-11.2-12.4-13.9-29.5-13.9-45.6c0-2.7,0-5.3,0-8c0-1.2,0-2.3,0-3.5c0-0.2-0.1-0.8,0.1-0.9
		c0.1-0.1,0.9,0,1.1,0c0.7,0,1.5,0,2.2,0c2.4,0,4.7,0,7.1,0c5.7,0,11.5,0,17.2,0c2,0,4,0,6,0c0.4,0,1.1-0.1,1.5,0
		c0.3,0.1,0.1-0.1,0.2,0.3c0.2,0.8,0,1.8,0,2.6c0,1.3,0,2.7,0,4c0,2.7,0,5.3,0,7.9c0,6,0.4,12.3,3.8,17.5c3.9,5.8,10.9,7.5,17.6,7.1
		c4.2-0.3,8.4-1.6,11.5-4.6c2.8-2.6,4.2-6.3,5-10c1-4.9,1-10.1,0.6-15.2c-0.5-4.9-1.6-9.8-3.5-14.4c-3.2-7.8-8.7-14.3-14.4-20.3
		c-7.6-8-16.2-14.8-24-22.5c-6.7-6.6-13-13.5-18.3-21.3c-5.2-7.7-9-16.2-11-25.3c-2.2-10-2.5-20.6-1.1-30.8
		c1.2-8.6,3.7-17.1,8.4-24.4c4.3-6.8,10.4-12.3,17.6-16c8.1-4.1,17.2-5.7,26.2-6c9.3-0.3,18.8,0.7,27.5,4.3
		c7.4,3.1,13.9,8.1,18.6,14.6c5,6.8,7.9,14.9,9.5,23.1c1.4,7.5,1.5,15,1.5,22.6c0,1.4,0,2.7,0,4.1c0,0.3,0.1,0.9-0.1,1.1
		c-0.2,0.1-1,0-1.2,0c-0.8,0-1.5,0-2.3,0c-10.1,0-20.2,0-30.2,0c-0.3,0-1.1,0.1-1.4,0c-0.2-0.1-0.2-0.1-0.2-0.5c0-2.5,0-5.1,0-7.6
		c0-6.7,0.2-13.8-3.2-19.7c-4.2-7.3-13.4-9.1-21.1-7.3c-6.5,1.5-10.6,6.6-12.1,12.9c-2.2,9.1-0.8,19.3,3,27.8
		c3.5,7.8,9.2,14.4,15.2,20.5c7.7,7.9,16.4,14.8,24.2,22.5c6.6,6.5,12.8,13.4,17.9,21.2C476.5,188.6,479.6,208.9,477.4,228.1z
		 M566.7,510c-0.1,0.1-0.9,0-1,0c-5.2,0-10.3,0-15.5,0c-8.6,0-17.3,0-25.9,0c-8.6,0-17.2,0-25.8,0c-5.1,0-10.1,0-15.2,0
		c-0.6,0-0.8,0.2-0.9-0.2c-0.2-0.6,0-1.7,0-2.3c0-3.7,0-7.4,0-11.1c0-6,0-12.1,0-18.1c0-7.7,0-15.4,0-23.2c0-8.8,0-17.5,0-26.3
		c0-9.2,0-18.3,0-27.5c0-9,0-17.9,0-26.9c0-8,0-16.1,0-24.1c0-6.5,0-13,0-19.6c0-4.3,0-8.6,0-13c0-1.5,0-3,0-4.5c3.4,0,6.8,0,10.3,0
		c8,0,16,0,23.9,0c9,0,17.9,0,26.9,0c6.5,0,13,0,19.5,0c0.8,0,1.6,0,2.4,0c0.2,0,1-0.1,1.2,0c0.2,0.1,0.1,0.7,0.1,1
		c0,1.4,0,2.8,0,4.2c0,4.4,0,8.7,0,13.1c0,2,0,3.9,0,5.9c0,1.2,0.1,2.4,0,3.5c0,0.5,0.1,0.3-0.4,0.4c-0.7,0.1-1.5,0-2.3,0
		c-3.1,0-6.2,0-9.3,0c-8.8,0-17.6,0-26.4,0c-3.5,0-7.1,0-10.6,0c-1.1,0-2.1,0-3.2,0c-0.2,0-1.1-0.1-1.2,0c-0.1,0.1,0,0.9,0,1.1
		c0,1,0,2.1,0,3.1c0,3.5,0,7,0,10.5c0,8.8,0,17.6,0,26.4c0,3,0,5.9,0,8.9c0,0.4-0.2,1.5,0,1.9c0.1,0.2,0.3,0.1,0.6,0.1
		c7,0,13.9,0,20.9,0c6.8,0,13.6,0,20.4,0c0.5,0,0.4-0.1,0.5,0.4c0.1,1.1,0,2.3,0,3.4c0,4.2,0,8.5,0,12.7c0,3.5,0,7.1,0,10.6
		c0,0.4,0.1,0.8-0.1,1c-0.5,0.2-1.7,0-2.2,0c-7.9,0-15.7,0-23.6,0c-3.9,0-7.8,0-11.8,0c-1.2,0-2.3,0-3.5,0c-0.2,0-1.1-0.1-1.2,0
		c-0.1,0.1,0,1,0,1.1c0,1,0,2,0,2.9c0,3.3,0,6.5,0,9.8c0,8.8,0,17.7,0,26.5c0,6.3,0,12.6,0,18.9c0,0.2-0.1,1,0,1.1
		c0.1,0.1,0.8,0,1,0c2.5,0,5,0,7.5,0c8.6,0,17.3,0,25.9,0c6.2,0,12.3,0,18.5,0c0.5,0,0.4-0.1,0.5,0.2c0.1,0.3,0,0.9,0,1.2
		c0,0.7,0,1.3,0,2c0,4.2,0,8.3,0,12.5c0,3.6,0,7.3,0,10.9C566.8,509,566.9,509.9,566.7,510z M576.5,262.1
		c-8.4-9.1-12.4-21.2-13.6-33.3c-0.5-4.6-0.5-9.1-0.5-13.7c0-4.7,0-9.5,0-14.2c0-7.2,0-14.3,0-21.5c0-8.3,0-16.7,0-25
		c0-8.3,0-16.6,0-24.9c0-7.1,0-14.2,0-21.2c0-4.6,0-9.2,0-13.9c0-5.1,0.1-10.1,0.7-15.2c1.5-12,5.8-23.7,14.4-32.4
		c8.7-8.8,20.6-12.9,32.7-13.9c12.8-1.1,26.7,0.3,38,6.9c10.2,5.9,17.2,15.7,20.8,26.7c3,9.4,3.5,19.2,3.5,28.9c0,4,0,8,0,12.1
		c0,1.8,0,3.6,0,5.4c0,0.6,0,1.3,0,1.9c0,0.3,0.1,0.8,0,1.1c-0.1,0.4-0.1,0.2-0.6,0.2c-1,0-2,0-3,0c-3.6,0-7.2,0-10.8,0
		c-6.8,0-13.5,0-20.3,0c-0.5,0-0.5,0.1-0.7-0.2c-0.1-0.3,0-0.8,0-1c0-0.6,0-1.2,0-1.8c0-3.8,0-7.5,0-11.3c0-3.6,0-7.3,0-10.9
		c0-3.3,0-6.6-0.6-9.8c-0.9-4.5-2.9-8.9-6.7-11.6c-4-2.8-9.1-3.4-13.8-3c-4.5,0.4-8.8,2.1-11.7,5.7c-3.2,4-4.2,9.3-4.4,14.3
		c-0.1,2.5,0,5,0,7.4c0,5.1,0,10.2,0,15.3c0,7.3,0,14.5,0,21.8c0,8.4,0,16.7,0,25.1c0,8.3,0,16.6,0,24.9c0,7.1,0,14.3,0,21.4
		c0,4.9,0,9.7,0,14.6c0,3.1-0.1,6.3,0.3,9.5c0.6,4.7,2.1,9.5,5.7,12.7c3.6,3.2,8.4,4.2,13.1,4.1c4.6-0.1,9.3-1.2,12.7-4.4
		c3.5-3.4,5-8.3,5.4-13c0.2-2.5,0.2-4.9,0.2-7.4c0-3.5,0-7,0-10.4c0-7.2,0-14.3,0-21.5c0-0.2-0.1-1.2,0-1.4c0.2-0.2,1.2,0,1.4,0
		c3,0,6.1,0,9.1,0c7.5,0,15,0,22.4,0c0.5,0,1.8-0.2,2.3,0c0.3,0.1,0.2,0.3,0.2,0.7c0,2.7,0,5.5,0,8.2c0,7.5,0,15,0,22.5
		c0,10-0.8,20.1-4.4,29.6c-4.1,10.9-11.8,20.1-22.3,25.3c-11.8,5.9-26,6.9-38.9,5.2C595.4,275.3,584.4,270.8,576.5,262.1z
		 M657.2,510c-2,0-4,0-6,0c-0.6,0-1.3,0-1.9,0c-0.3,0-0.7,0.1-1,0c-0.3-0.1-0.3-0.6-0.4-0.9c-0.4-1.2-0.7-2.4-1-3.5
		c-0.5-1.8-0.8-3.6-1-5.4c-0.4-3.4-0.4-6.8-0.4-10.1c-0.1-7.8,0-15.7,0-23.5c0-4.4,0-8.8,0-13.2c0-4,0-8-0.6-12
		c-0.5-3.1-1.3-6.4-3-9.1c-1.6-2.6-4.2-4.3-7-5.2c-5-1.7-10.5-1.2-15.6-1.2c-1,0-2,0-3,0c-0.1,0-0.8-0.1-0.8,0c-0.1,0.1,0,0.9,0,1.1
		c0,2.3,0,4.5,0,6.8c0,8.6,0,17.1,0,25.7c0,9.9,0,19.8,0,29.7c0,6.4,0,12.9,0,19.3c0,0.3,0.2,1.2,0,1.5c-0.1,0.2-0.6,0.1-0.9,0.1
		c-3.8,0-7.6,0-11.5,0c-4.7,0-9.4,0-14.1,0c-1.3,0-2.6,0.1-3.9,0c-0.4,0-0.3,0.1-0.4-0.1c-0.1-0.2,0-0.6,0-0.8c0-0.5,0-1,0-1.6
		c0-1.7,0-3.4,0-5.1c0-5.8,0-11.5,0-17.3c0-8.1,0-16.2,0-24.3c0-9.6,0-19.1,0-28.7c0-10.2,0-20.4,0-30.5c0-9.9,0-19.8,0-29.7
		c0-8.7,0-17.4,0-26.1c0-6.7,0-13.3,0-20c0-3.7,0-7.4,0-11.1c0-0.5,0-1,0-1.4c5.2,0,10.4,0,15.6,0c8.3,0,16.5,0,24.8,0
		c8.4,0,16.7,0.1,24.8,2.4c5.5,1.6,10.7,4.2,14.9,8.2c4.2,4,7,9.2,8.8,14.7c3.1,9.9,2.7,20.3,2.7,30.6c0,10.7-1.2,22.3-8,31.1
		c-1.5,2-3.3,3.7-5.3,5.2c-1,0.8-2.1,1.5-3.2,2.1c-0.5,0.3-1.1,0.6-1.6,0.9c-0.5,0.3-1.4,0.4-1.8,0.8c-0.5,0.5-0.1,0.7,0.5,0.9
		c0.8,0.3,1.6,0.6,2.4,0.9c1.5,0.6,2.9,1.4,4.2,2.3c2.6,1.7,4.8,4,6.5,6.6c3.5,5.3,5,11.9,5.9,18.1c0.7,4.9,0.8,9.8,0.8,14.7
		c0,7.6,0,15.1,0,22.7c0,7.7-0.3,15.6,0.5,23.3c0.4,3.9,1.3,7.7,2.9,11.3C672.2,510,664.7,510,657.2,510z"/>
</g>
</svg>
