<svg id="Ebene_1" data-name="Ebene 1" xmlns="http://www.w3.org/2000/svg" viewBox="0 0 77.64 50"><defs><style>.cls-1{fill:purple;}</style></defs><title>logo</title><path class="cls-1" d="M69.6,30.89a2.19,2.19,0,0,1-.68,1.87,3.12,3.12,0,0,1-1.87.5H65.9v-4.5h1.59a1.88,1.88,0,0,1,2.11,2.13Zm-38.35,7h2.88l-1.59-8.26ZM11.31,30.26a4,4,0,0,0-2.25-.51H8.57v5h.58a3.55,3.55,0,0,0,2.1-.55,2.33,2.33,0,0,0,.77-2A2.26,2.26,0,0,0,11.31,30.26ZM77.64,50H0V0H77.64ZM61.33,13.15a18.26,18.26,0,0,0,1.37,7.49,5.22,5.22,0,0,0,7.76,2.08,5.82,5.82,0,0,0,1.87-2.56A9.46,9.46,0,0,0,73,16.68l-3.25-.31a11.48,11.48,0,0,1-.57,3A1.56,1.56,0,0,1,67.7,20.6q-1.48,0-2-2a22.68,22.68,0,0,1-.52-5.42,20.34,20.34,0,0,1,.47-4.68q.47-1.95,1.69-1.95T68.84,8a10.66,10.66,0,0,1,.39,2.66l3.69-.18a8.89,8.89,0,0,0-.66-3.39,6.53,6.53,0,0,0-1.9-2.64,4.39,4.39,0,0,0-2.87-1A4.69,4.69,0,0,0,64,4.89a8.48,8.48,0,0,0-2,3.65A16.86,16.86,0,0,0,61.33,13.15ZM54.65,23.47l3.82-.31V3.81l-3.82.31ZM5.38,23.31l3.15-.16V8.78l3.93,14.53H14.8L18.43,8.83V23.47l4-.31V4l-5.1.31L14.19,15.9,11,3.84,5.38,4Zm10,8.92a4.79,4.79,0,0,0-1.18-3.61,4.87,4.87,0,0,0-2.73-1.35A30.76,30.76,0,0,0,7.33,27H5.17v17.4l3.38-.28V37.53a14.25,14.25,0,0,0,3.37-.36,4.62,4.62,0,0,0,2.46-1.52,5.1,5.1,0,0,0,1-3.41Zm10.49,8.56h-5.3V27.17l-3.14.26V43.31h8.12Zm0-23.9a7.78,7.78,0,0,0,1.46,4.91,5.19,5.19,0,0,0,4.37,1.87q3.43,0,4.51-2.24a11.34,11.34,0,0,0,1.08-5V3.81l-3.48.31v13a12.28,12.28,0,0,1-.1,1.75,2.36,2.36,0,0,1-.53,1.2,1.66,1.66,0,0,1-1.34.51,1.88,1.88,0,0,1-1.43-.49,2.22,2.22,0,0,1-.59-1.2,10.76,10.76,0,0,1-.12-1.72V3.81L25.87,4ZM39,44.18,35.32,27.06l-4.81.21-3.63,17h3l.74-3.7h4.12l.62,3.7ZM52,27.32l-3.51-.57L44,34.94,42.54,25.8l-4.48-.72,3,13.41L39.7,46.92l4.17.33,1.38-8.57Zm.15-9.88q-.18-3.22-3.67-5.2l-3.15-1.85a2.62,2.62,0,0,1-.84-.79,1.94,1.94,0,0,1-.35-1.13,2.12,2.12,0,0,1,.46-1.4,1.61,1.61,0,0,1,1.31-.55,2.07,2.07,0,0,1,1.18.32,2.51,2.51,0,0,1,.82,1.05l.44.94,3.22-1.46A5.77,5.77,0,0,0,49.5,4.44a5.77,5.77,0,0,0-3.41-1A6.45,6.45,0,0,0,43,4.18a5.47,5.47,0,0,0-2.16,2,5.77,5.77,0,0,0-.79,3,4.9,4.9,0,0,0,.88,2.86A7,7,0,0,0,43.3,14.2l3.41,2a2.92,2.92,0,0,1,.94,1A2.5,2.5,0,0,1,48,18.53,2.2,2.2,0,0,1,47.49,20a1.54,1.54,0,0,1-1.21.65,2.28,2.28,0,0,1-1.73-.73,11,11,0,0,1-1.44-2l-.31-.52-3.22,1.51A7.53,7.53,0,0,0,42,22.43a6.15,6.15,0,0,0,4,1.31A6.44,6.44,0,0,0,49.12,23a5.73,5.73,0,0,0,2.24-2.2A6.4,6.4,0,0,0,52.15,17.44Zm9.23,23.34H56.14V36.21h3.4V33.48h-3.4V29.6H61l.26-2.54H53V43.31h8.17ZM73.6,42.72,72,39l-1.5-3.76A4.58,4.58,0,0,0,73,30.87a4.13,4.13,0,0,0-1.68-3.62,8,8,0,0,0-4.65-1.18l-4.09.14V43.45l3.36-.28V35.75h1.31l3.08,7.87Z" transform="translate(0 0)"/></svg>