<svg id="Ebene_1" data-name="Ebene 1" xmlns="http://www.w3.org/2000/svg" viewBox="0 0 744.96 552.38"><defs><style>.cls-1{fill:#72237a;}</style></defs><title>logo</title><path class="cls-1" d="M642.36,347.68a12.86,12.86,0,0,0-9.73-6,52.57,52.57,0,0,0-7.15-.21h-8.41c-.26,0-1.51-.19-1.7,0s0,.42,0,.48v54.9c0,1,0,.81,1,.81h10.2c4.48,0,9.24-.84,12.8-3.76,3.06-2.51,4.52-6.26,5.2-10.06,1-5.62.55-11.62.55-17.3C645.17,360.24,645.63,353.3,642.36,347.68Z"/><path class="cls-1" d="M116.15,342a36.77,36.77,0,0,0-8.55-.52H98.32c-.24,0-1.48-.17-1.65,0s0,.56,0,.66v58.23a4.88,4.88,0,0,0,0,1.28c.11.34-.13.13.25.25a4.36,4.36,0,0,0,1.15,0h13.22c4.63,0,9.58-1.33,12.29-5.38,2.53-3.79,2.88-8.77,2.89-13.18,0-5.06,0-10.13,0-15.19,0-5.9.59-12.36-1.32-18A12.11,12.11,0,0,0,116.15,342Z"/><path class="cls-1" d="M324.92,411.73l-4-28.12-3.45-24.36-1.12-7.88L316,349c0-.27,0-1-.17-1.21-.66-.88-.73,1-.77,1.26l-.83,6-3.05,22-3.88,28-3.52,25.36-1.92,13.86-.09.64h27.82l-1.38-9.75Z"/><path class="cls-1" d="M0,0V552.38H745V0ZM499.44,272.85V36h36.29c.33,0,1-.13,1.11.1s0,.82,0,1V273.53c0,.08.05.46,0,.52s-.83,0-1,0H500.41c-.35,0-.82.12-1-.12S499.44,273.08,499.44,272.85ZM234.93,36c.2-.21,1.68,0,2,0h34.17c.22,0,1.13-.12,1.27,0s0,.64,0,.77V214.52c0,4.39-.17,8.86.55,13.21a20.31,20.31,0,0,0,4.09,9.94,16.57,16.57,0,0,0,9.93,5.41c7.85,1.37,16.93-.74,20.8-8.33,2.89-5.67,2.72-12.15,2.72-18.35V37.87c0-.27-.18-1.64,0-1.82s.71,0,.84,0H344.8a5.52,5.52,0,0,1,1.37,0c.4.12.16-.1.28.23a4.22,4.22,0,0,1,0,1.18v170.2q0,4.89,0,9.78c0,14.27-2.54,29.26-11.28,40.94a44.71,44.71,0,0,1-17.54,14c-7.8,3.49-16.39,4.87-24.88,5.06-15.86.35-32.42-3.39-43.54-15.45s-14.26-28.62-14.28-44.38q0-4.15,0-8.3V38.22C234.93,37.91,234.7,36.29,234.93,36Zm-82.5,371.62a36,36,0,0,1-14.25,16.06c-7.12,4.2-15.45,5.83-23.63,6.16-4.73.19-9.49.07-14.22.07H97.41c-.13,0-.66-.07-.74,0s0,1.21,0,1.43v77.06c0,.25.17,1.32,0,1.53s-1.5,0-1.8,0H67.17c-.25,0-1.27.14-1.42,0s0-.6,0-.72V313.35H87.92q11.66,0,23.32,0c7.92,0,16,1,23.27,4.33a35.45,35.45,0,0,1,15.94,14.2c4.22,7.09,6.07,15.34,6.67,23.5.36,4.88.24,9.8.24,14.7C157.36,382.77,157.89,395.83,152.43,407.67Zm20.62-133.74c-.1-.17,0-.74,0-.93V94.48c0-.1.07-.55,0-.62a1.69,1.69,0,0,0-.68,0s0,.15,0,.19a3.71,3.71,0,0,0-.16,1L171.89,97l-2.25,14.89-3.62,24-4.46,29.52-4.78,31.67-4.53,30-3.81,25.27-2.52,16.69-.63,4.14c-.15,1-.05.85-1.12.85H115.25a3.75,3.75,0,0,1-1.22,0c-.21-.11-.06,0-.18-.27a13.47,13.47,0,0,1-.47-3.1l-2.29-15.19-3.63-24.05L103,201.74l-4.75-31.49L93.67,140.1l-3.78-25L87.4,98.56l-.6-4c0-.14,0-.62-.11-.72A.42.42,0,0,0,86,94a3,3,0,0,0,0,1V273.46c0,.08.06.51,0,.58s-1.55,0-1.81,0H54.63c-.24,0-.92.13-1.13,0s0,0-.13-.21a8.35,8.35,0,0,1,0-2.46V36H105.3c.23,0,1.27-.16,1.45,0S107,37.67,107,38l1.92,13.74,3.3,23.64,4.15,29.7,4.41,31.53,4.16,29.8,3.32,23.78,2,14.1c0,.34,0,1.87.3,2.11a1.48,1.48,0,0,0,.68,0s0-.18,0-.23a4.78,4.78,0,0,0,.16-1.18l1.8-12.88,3.23-23.15,4.08-29.22L145,108l4.18-29.88,3.42-24.48,2.08-14.87L154.9,37c0-.18,0-.73.12-.87s.33-.08.56-.08h50a9.7,9.7,0,0,1,2.58,0c.31.1.13-.07.25.13s0,.6,0,.77V271.21a10.63,10.63,0,0,1,0,2.57c0,.13,0,.2,0,.27s-.73,0-.87,0H173.62C173.3,274,173.17,274.12,173.05,273.93ZM256,510c-.18.18-1.48,0-1.72,0H175.82c-.22,0-1.43.17-1.6,0s0-.59,0-.69v-196h29.67c.45,0,1.07-.18,1.24.17a4.69,4.69,0,0,1,0,1.5V480.52c0,.25-.15,1.11,0,1.33s.79.1,1.11.1h48c.42,0,1.56-.18,1.75.13s0,1.44,0,1.82v25.18C256,509.22,256.09,509.94,256,510Zm100.94,0H340c-.17,0-.94.12-1.08,0s-.1-.69-.12-.82l-.83-5.73-2.76-19.21-1.23-8.54c-.21-1.49-.31-3.07-.65-4.54,0-.07,0-.15,0-.22,0,.61.11.45-.29.56a5.12,5.12,0,0,1-1.22,0H298.89c-.13,0-.63-.08-.73,0s-.2,1.19-.23,1.44l-3.71,25.43-1.52,10.42c0,.32,0,1.06-.27,1.21s-.85,0-1.07,0H263.86l.86-5.26L267,490.47l3.45-21.18,4.21-25.84,4.61-28.3L284,386.59,288.3,360,292,337.53l2.64-16.19,1.25-7.67.05-.33h41c.15,0,.75-.1.87,0s.06.28.1.39a34.27,34.27,0,0,1,.59,3.62l1.14,7,3.66,22.44,4.94,30.31,5.55,34.07,5.59,34.31,5,30.44,3.68,22.57,1.8,11,.08.48ZM466.68,318.61l-4.56,13.79-6.36,19.22-7.22,21.81-7.05,21.32-5.87,17.75-3.75,11.34a10.39,10.39,0,0,0-.82,3.35v81.93c0,.15.1.75,0,.87s-.43.06-.62.06H402.35c-.46,0-1.67.23-2.08,0s-.14-1-.14-1.45V426.31L396.4,415l-8.92-27L376.7,355.45l-9.32-28.17-3.09-9.34-1-2.89a5.07,5.07,0,0,1-.5-1.52.62.62,0,0,0-.06-.18h31.45a4.34,4.34,0,0,1,1.23,0c.59.22.83,2.19,1,2.81L403,338.4l8.51,29.18,5.11,17.51c.09.3.2.89.71.45.22-.19.32-1.09.4-1.35l2.23-7.65,7.87-27,7.89-27,2.26-7.73c.08-.29.18-1.2.41-1.4s1.24,0,1.55,0h28.52Zm10.76-90.47c-1,8.69-3.2,17.35-7.54,25A45.54,45.54,0,0,1,453.43,270c-7.62,4.46-16.37,6.57-25.12,7.24-9.46.72-19.28.11-28.34-2.83A44.6,44.6,0,0,1,380.45,262c-11.17-12.39-13.94-29.47-13.94-45.59v-11.5c0-.22-.08-.77.05-.88s.93,0,1.12,0h32.51a4.83,4.83,0,0,1,1.47,0c.31.13.1-.11.21.31a11.53,11.53,0,0,1,0,2.59v11.93c0,6,.39,12.35,3.82,17.47,3.89,5.82,10.9,7.53,17.55,7.09a18.18,18.18,0,0,0,11.55-4.59,18.83,18.83,0,0,0,5-10,54.5,54.5,0,0,0-3-29.53c-3.2-7.76-8.66-14.32-14.4-20.34-7.59-8-16.18-14.83-24-22.54a143.27,143.27,0,0,1-18.28-21.29,73.27,73.27,0,0,1-11-25.28A88.12,88.12,0,0,1,368,79a60,60,0,0,1,8.44-24.41,45,45,0,0,1,17.58-16c8.09-4.08,17.19-5.72,26.18-6,9.29-.28,18.83.73,27.49,4.29a43.35,43.35,0,0,1,18.63,14.56,56.92,56.92,0,0,1,9.47,23.08c1.42,7.48,1.55,15,1.55,22.6v4.08c0,.27.11.92-.07,1.05s-1,0-1.18,0H443.57a4.45,4.45,0,0,1-1.41,0c-.25-.12-.18-.07-.18-.48v-7.6c0-6.65.22-13.79-3.19-19.75-4.15-7.27-13.42-9.08-21.09-7.27-6.53,1.54-10.58,6.57-12.14,12.92-2.24,9.14-.85,19.35,3,27.84,3.53,7.79,9.25,14.39,15.17,20.46,7.71,7.9,16.36,14.77,24.21,22.51a130.1,130.1,0,0,1,17.88,21.19C476.55,188.59,479.55,208.89,477.44,228.14ZM566.74,510c-.13.11-.87,0-1,0H483.37c-.55,0-.76.17-.9-.25a8.91,8.91,0,0,1,0-2.31V313.35h83c.22,0,1-.13,1.2,0s.08.71.08,1v23.22c0,1.15.1,2.36,0,3.51,0,.49.08.34-.37.41a17.12,17.12,0,0,1-2.28,0H514.6c-.17,0-1.09-.13-1.21,0s0,.9,0,1.05v48.93c0,.41-.21,1.5,0,1.87.12.21.29.13.63.13H534.9c6.81,0,13.62,0,20.44,0,.53,0,.43-.08.48.41.11,1.12,0,2.31,0,3.44v23.29c0,.39.13.82-.15,1a6.78,6.78,0,0,1-2.2,0H514.58c-.17,0-1.07-.12-1.2,0s0,1,0,1.13v58.14c0,.16-.12,1,0,1.13s.83,0,1,0h51.9c.45,0,.41-.09.53.22a4.17,4.17,0,0,1,0,1.18v25.44C566.77,509,566.89,509.91,566.74,510Zm9.71-247.9c-8.4-9.1-12.39-21.16-13.63-33.31a134.5,134.5,0,0,1-.48-13.68V94.5a121.58,121.58,0,0,1,.7-15.18c1.5-12,5.84-23.73,14.43-32.44S598.09,34,610.21,32.94c12.83-1.09,26.65.33,38,6.86,10.17,5.87,17.23,15.66,20.82,26.73,3,9.4,3.48,19.15,3.48,28.95v19.42a4.24,4.24,0,0,1,0,1.15c-.12.36-.12.25-.63.25H637.8c-.45,0-.53.11-.66-.21a3.56,3.56,0,0,1,0-1v-24a51.15,51.15,0,0,0-.65-9.79c-.87-4.49-2.88-8.88-6.72-11.57s-9.12-3.37-13.82-3c-4.49.39-8.83,2.08-11.73,5.65-3.22,4-4.23,9.29-4.44,14.26-.11,2.47,0,5,0,7.43V217.2a80.12,80.12,0,0,0,.28,9.46c.56,4.67,2.11,9.48,5.71,12.69s8.44,4.15,13.1,4.1,9.29-1.19,12.68-4.43,5-8.3,5.43-13c.25-2.46.2-4.93.2-7.39v-31.9c0-.19-.14-1.24,0-1.38s1.21,0,1.41,0h31.53a7,7,0,0,1,2.26,0c.26.13.16.29.16.69v30.71c0,10-.84,20.09-4.43,29.56a46.26,46.26,0,0,1-22.27,25.31c-11.8,5.89-26,6.9-38.93,5.22C595.41,275.3,584.39,270.76,576.45,262.15ZM657.23,510h-7.91a3.27,3.27,0,0,1-1,0c-.27-.11-.3-.63-.39-.91-.39-1.17-.74-2.35-1-3.55a38.26,38.26,0,0,1-1-5.44c-.35-3.37-.39-6.77-.43-10.15-.09-7.83,0-15.66,0-23.5V453.28a81.5,81.5,0,0,0-.56-12,23,23,0,0,0-3-9.06,13.13,13.13,0,0,0-7-5.22c-5-1.69-10.47-1.25-15.65-1.25h-3c-.14,0-.76-.08-.85,0s0,.95,0,1.12v81.49c0,.33.17,1.25,0,1.54s-.56.13-.92.13h-25.6c-1.31,0-2.63.06-3.94,0-.35,0-.34.07-.45-.13s0-.64,0-.82V313.35H624.9c8.35,0,16.73.06,24.83,2.41a35.46,35.46,0,0,1,14.89,8.19,35,35,0,0,1,8.77,14.72c3.15,9.9,2.7,20.32,2.7,30.58,0,10.75-1.23,22.33-8,31.11a28.15,28.15,0,0,1-5.32,5.25,28.84,28.84,0,0,1-3.21,2.09q-.8.45-1.63.85a9.07,9.07,0,0,0-1.82.81c-.54.47-.07.69.5.88q1.19.39,2.35.88a25.48,25.48,0,0,1,4.22,2.28,23.42,23.42,0,0,1,6.52,6.6c3.5,5.32,5,11.89,5.86,18.12a108.87,108.87,0,0,1,.83,14.68v22.71c0,7.74-.26,15.58.46,23.29A35.67,35.67,0,0,0,679.73,510Z"/></svg>